<?xml version="1.0" encoding="UTF-8"?>
<svg version="1.1" xmlns="http://www.w3.org/2000/svg" width="800" height="700">
<path d="M0 0 C4.32935066 4.09982384 7.78859242 8.40643965 10 14 C10 14.99 10 15.98 10 17 C10.95777344 16.61328125 11.91554687 16.2265625 12.90234375 15.828125 C48.63228006 1.7141644 86.91728666 1.95789781 123 15 C124.34330616 15.64633642 125.67985041 16.30759312 127 17 C127.29132813 16.43152344 127.58265625 15.86304687 127.8828125 15.27734375 C133.52567939 4.64816996 140.43485438 -2.94333391 152.09765625 -7.10546875 C163.31368856 -10.12571512 174.26458419 -9.74192878 184.8828125 -4.60546875 C195.60488799 1.71575486 205.21928638 11.1658844 208.57421875 23.55859375 C210.84918996 36.60315344 210.37534329 47.72225988 203 59 C198.43244911 64.1250464 193.21648189 67.22478487 187 70 C187.45890625 70.92296875 187.9178125 71.8459375 188.390625 72.796875 C192.0776571 80.51744589 194.77236384 88.02966828 196.4375 96.4375 C196.60088867 97.25250977 196.76427734 98.06751953 196.93261719 98.90722656 C197.92465106 104.34021383 198.13813936 109.479951 198 115 C198.64839844 114.70867187 199.29679687 114.41734375 199.96484375 114.1171875 C220.1875397 105.66670483 242.36412325 102.4872315 264 100 C264.9079834 99.8954248 265.8159668 99.79084961 266.75146484 99.68310547 C276.80421153 98.68903411 286.90809188 98.75724725 297 98.75 C297.97431976 98.74899292 298.94863953 98.74798584 299.95248413 98.74694824 C316.15893838 98.75824182 331.95087936 99.59668537 348 102 C348.95922363 102.13390137 349.91844727 102.26780273 350.90673828 102.40576172 C401.98468235 109.63253309 454.44434159 129.70343625 494.44189453 162.71826172 C495.96865448 163.97421436 497.51349232 165.20808774 499.05859375 166.44140625 C504.36273274 170.69479314 509.2976876 175.09519568 514 180 C516.44588766 182.46184777 518.90434609 184.90715485 521.39453125 187.32421875 C527.09197767 192.89280531 532.21826316 198.63043451 537 205 C537.75796875 206.00289062 538.5159375 207.00578125 539.296875 208.0390625 C552.45845003 225.78318874 562.68354036 244.75685673 570.375 265.4375 C570.72143555 266.36159668 571.06787109 267.28569336 571.42480469 268.23779297 C573.339766 273.53995014 574.53968713 278.37760712 575 284 C575.78375 283.525625 576.5675 283.05125 577.375 282.5625 C585.06126852 279.24945322 593.10229897 279.31704893 601 282 C608.46239385 285.2429466 611.57465014 289.92131947 614.90625 297.1953125 C616.72113878 301.84920586 617.1364311 305.53853047 617.125 310.5625 C617.12757813 311.69816406 617.13015625 312.83382813 617.1328125 314.00390625 C617 317 617 317 616 320 C615.25878906 319.855625 614.51757812 319.71125 613.75390625 319.5625 C607.1082649 318.39117521 600.74016465 317.80664853 594 317.8125 C593.28271729 317.81185547 592.56543457 317.81121094 591.82641602 317.81054688 C588.08523792 317.8492563 584.64841773 318.21173733 581 319 C581.02356567 320.28910278 581.02356567 320.28910278 581.04760742 321.60424805 C582.01702991 382.88238445 561.43541533 434.80710543 518.95703125 479.265625 C510.98314908 487.47093671 502.79147965 495.0257715 493.58496094 501.82080078 C492.08268882 502.93848013 490.60681668 504.0913902 489.1328125 505.24609375 C455.98069713 531.00556289 416.3102799 547.79856151 375.625 557.3125 C374.64112305 557.54283936 373.65724609 557.77317871 372.64355469 558.01049805 C357.44341778 561.40449781 342.13994839 563.39565192 326.61816406 564.50805664 C324.10398874 564.68901227 321.59113968 564.88371844 319.078125 565.08007812 C281.4854972 567.93983338 243.34675094 563.84852665 207 554 C205.58871826 553.62367432 205.58871826 553.62367432 204.14892578 553.23974609 C167.11858689 543.20276213 132.08551512 525.82879295 102 502 C101.10539063 501.29746094 100.21078125 500.59492187 99.2890625 499.87109375 C91.86816955 493.9280004 84.88982358 487.54329399 78 481 C76.75863281 479.82244141 76.75863281 479.82244141 75.4921875 478.62109375 C69.84102923 473.11761384 64.85713431 467.20936051 60 461 C59.54222168 460.4239502 59.08444336 459.84790039 58.61279297 459.25439453 C32.5228751 426.3083498 18.85041989 390.15127065 20 348 C19.33355469 348.0721875 18.66710937 348.144375 17.98046875 348.21875 C-18.61287985 351.90367461 -57.115179 342.66237331 -86.01367188 319.31298828 C-104.85183906 303.52475773 -119.09516861 284.17873063 -125 260 C-125.22429687 259.12085938 -125.44859375 258.24171875 -125.6796875 257.3359375 C-130.05598827 236.53352153 -127.34599586 214.02948602 -118 195 C-117.21109375 193.38158203 -117.21109375 193.38158203 -116.40625 191.73046875 C-110.85586778 180.89460891 -103.71621045 172.40305319 -95 164 C-94.2059375 163.18660156 -93.411875 162.37320313 -92.59375 161.53515625 C-84.56618377 153.68893564 -75.16081276 148.16217896 -65.37109375 142.84765625 C-62.00613372 141.06657593 -62.00613372 141.06657593 -59 139 C-59.474375 138.05125 -59.94875 137.1025 -60.4375 136.125 C-62.4062846 131.47235336 -62.77282566 127.01160365 -63 122 C-63.05285156 120.9584375 -63.10570312 119.916875 -63.16015625 118.84375 C-63.6477329 100.35823525 -58.22762188 84.73538637 -51 68 C-51.85271484 67.5978125 -51.85271484 67.5978125 -52.72265625 67.1875 C-60.98439283 62.99456524 -66.80952383 57.2372485 -70.28125 48.54296875 C-73.4081815 37.47974916 -72.34155578 25.63727252 -67.3125 15.3203125 C-60.04148313 2.46619338 -51.21156789 -4.90094238 -37 -9 C-23.5012762 -12.17617031 -10.75083752 -8.4990873 0 0 Z M-47 17 C-52.50142093 24.35131393 -54.92467065 31.82442203 -54 41 C-52.63981299 48.4363509 -50.36347958 55.23889384 -47 62 C-43.42408996 58.47572765 -39.99620669 54.84589715 -36.625 51.125 C-35.64534196 50.05654777 -34.66487695 48.98883485 -33.68359375 47.921875 C-32.18842239 46.29394462 -30.69736591 44.66211403 -29.22265625 43.015625 C-21.45434236 34.71361016 -11.1047148 28.07908945 -1 23 C-6.56679912 15.68303297 -12.78198503 10.74824422 -22 9 C-31.17910993 7.99045322 -40.39698428 10.20832669 -47 17 Z M139 23 C141.22404021 24.71080016 143.47678647 26.31785764 145.8125 27.875 C160.06903036 37.37935358 173.38693347 48.99659378 182 64 C185.18071959 63.31781731 185.18071959 63.31781731 186.31640625 60.59375 C191.37957959 48.02311275 194.41293638 37.52087806 189.1875 24.51171875 C185.92543705 17.6120264 180.86726996 14.08351478 174 11 C159.93594759 6.64290141 148.6678066 13.18539374 139 23 Z M-8 46 C-8.95519531 46.72058594 -9.91039062 47.44117188 -10.89453125 48.18359375 C-29.2952859 62.62110894 -41.70756377 82.20795051 -47 105 C-47.33837891 106.42505859 -47.33837891 106.42505859 -47.68359375 107.87890625 C-49.55664204 117.16664226 -49.17748669 126.57348455 -49 136 C-47.7934375 135.72285156 -46.586875 135.44570312 -45.34375 135.16015625 C-43.72921237 134.79406923 -42.11462643 134.42819517 -40.5 134.0625 C-39.70851563 133.88009766 -38.91703125 133.69769531 -38.1015625 133.50976562 C-28.61078656 131.37045138 -19.71394965 130.86517391 -10 130.9375 C-8.26556641 130.94426758 -8.26556641 130.94426758 -6.49609375 130.95117188 C-3.66400775 130.96287471 -0.83203189 130.97927004 2 131 C2 131.99 2 132.98 2 134 C0.93265625 134.21914062 -0.1346875 134.43828125 -1.234375 134.6640625 C-38.80815621 142.57994713 -74.37526859 156.24100168 -96.67578125 189.296875 C-108.20247374 207.17578251 -113.43032811 228.42946259 -109.77734375 249.51171875 C-105.19894959 270.05697494 -94.69467978 288.86802966 -78 302 C-77.09378906 302.71929687 -76.18757813 303.43859375 -75.25390625 304.1796875 C-46.27355788 326.56502812 -11.08299216 334.13647825 24.92578125 329.75 C49.28363674 326.39743996 72.69823194 316.59255122 91 300 C91.49242187 299.55672363 91.98484375 299.11344727 92.4921875 298.65673828 C109.80764844 282.87395932 121.88756911 261.02375606 123.203125 237.34375 C123.52204415 211.19237968 114.07557578 189.61313937 96 171 C95.45085937 170.38898438 94.90171875 169.77796875 94.3359375 169.1484375 C80.10762003 153.79867629 56.71777887 143.05397429 37 137 C36.01 137 35.02 137 34 137 C34 136.34 34 135.68 34 135 C36.00114975 135.4288178 38.00093019 135.86445353 39.99609375 136.3203125 C42.19157786 136.81708003 44.39309517 137.28739206 46.59765625 137.7421875 C74.32340437 143.75470707 99.40612082 162.46668817 114.80224609 186.06591797 C128.99615908 208.98564456 134.2647583 236.13130571 128.4375 262.6875 C121.76939355 289.8272736 102.42760115 313.21110529 78.875 327.625 C65.00357553 335.78466145 50.58763567 341.17522181 35 345 C33.49207186 345.37714211 31.98425527 345.75473056 30.4765625 346.1328125 C29.32929688 346.41898437 28.18203125 346.70515625 27 347 C27.56646261 350.12829431 28.15636255 353.25175822 28.75 356.375 C28.90726563 357.24511719 29.06453125 358.11523438 29.2265625 359.01171875 C30.45194672 365.37429064 32.40030724 371.07389576 35 377 C35.32597168 377.75506836 35.65194336 378.51013672 35.98779297 379.28808594 C38.58144894 385.22636222 41.29556062 391.1115817 44 397 C44.4326416 397.9472998 44.8652832 398.89459961 45.31103516 399.87060547 C60.8106982 433.65657915 82.71164257 464.72421358 113 487 C113.92474121 487.69875244 113.92474121 487.69875244 114.86816406 488.41162109 C125.41826335 496.37999651 136.25584792 503.4176096 147.83349609 509.79931641 C149.76356794 510.86896857 151.67447639 511.96512497 153.58203125 513.07421875 C222.64973466 551.98893621 310.88426869 555.98337343 386.28271484 535.58911133 C429.60938391 523.33686831 469.48646295 501.16577154 502 470 C502.79470703 469.24614014 502.79470703 469.24614014 503.60546875 468.47705078 C539.32489517 434.4439037 562.61832935 386.69653762 564.25 337.09375 C565.04383989 292.31379548 549.80157012 250.03162485 522 215 C521.36408936 214.1941748 520.72817871 213.38834961 520.07299805 212.55810547 C514.6720495 205.82342053 508.93442082 199.58287724 502.8125 193.5 C501.89122314 192.5836377 500.96994629 191.66727539 500.02075195 190.72314453 C493.06071703 183.88169474 485.96130466 177.63456949 478 172 C477.05979004 171.32517578 477.05979004 171.32517578 476.10058594 170.63671875 C466.70182121 163.91736553 457.03508312 157.72254932 447 152 C446.3817334 151.64228516 445.7634668 151.28457031 445.12646484 150.91601562 C373.60961078 109.88084929 289.34777247 107.56066845 210.8371582 125.18212891 C188.62694109 130.16615683 188.62694109 130.16615683 181 130 C180.67 128.35 180.34 126.7 180 125 C184.95 122.03 184.95 122.03 190 119 C189.57951698 94.19150199 177.53752029 72.91351246 160.75 55.3125 C134.79969684 30.23692616 99.88351809 20.42856032 64.48046875 20.78515625 C38.11727415 21.40742195 12.96350674 30.02388964 -8 46 Z M578 295 C578.66 298.96 579.32 302.92 580 307 C581.65 306.67 583.3 306.34 585 306 C592.32646379 305.56000287 598.91647759 306.11106069 606 308 C603.67550631 302.67010032 599.34551448 298.53224563 594.046875 296.10546875 C588.77416434 294.61582082 583.43585065 294.84900415 578 295 Z " fill="#008BBC" transform="translate(153,83)"/>
<path d="M0 0 C3.12831428 6.4055959 4.52645284 13.05029175 6 20 C8.551663 14.38091234 10.93876665 8.72382155 13.16796875 2.96875 C14 1 14 1 15 0 C16.68608966 -0.07205511 18.37500659 -0.08386068 20.0625 -0.0625 C20.98160156 -0.05347656 21.90070313 -0.04445313 22.84765625 -0.03515625 C23.55792969 -0.02355469 24.26820313 -0.01195312 25 0 C28.25643639 6.16396888 30.72401366 12.41416719 33 19 C33.33 19 33.66 19 34 19 C35.32 12.73 36.64 6.46 38 0 C43.94 0 49.88 0 56 0 C56.96403947 4.82019736 56.88441993 6.62282444 55.77734375 11.20703125 C55.48875488 12.42302002 55.20016602 13.63900879 54.90283203 14.8918457 C54.58141956 16.19882025 54.25963451 17.50570323 53.9375 18.8125 C53.61496606 20.15110373 53.29319576 21.48989168 52.97216797 22.82885742 C52.15360707 26.22995806 51.32177681 29.62765282 50.4854126 33.02441406 C49.72762759 36.10853141 48.98029309 39.19518906 48.23046875 42.28125 C47.69654834 44.45863675 47.16145891 46.63573729 46.625 48.8125 C46.37484131 49.83126221 46.12468262 50.85002441 45.86694336 51.8996582 C45.51901733 53.28930786 45.51901733 53.28930786 45.1640625 54.70703125 C44.86169678 55.92096558 44.86169678 55.92096558 44.55322266 57.15942383 C44 59 44 59 43 60 C40.98035801 60.07244053 38.95832876 60.08377188 36.9375 60.0625 C35.28041016 60.04896484 35.28041016 60.04896484 33.58984375 60.03515625 C32.73519531 60.02355469 31.88054687 60.01195312 31 60 C27.49752203 51.72819032 24.19160036 43.39630457 21 35 C20.76812988 35.7520874 20.53625977 36.5041748 20.29736328 37.27905273 C19.24780136 40.6677058 18.18657206 44.05259118 17.125 47.4375 C16.76019531 48.62150391 16.39539063 49.80550781 16.01953125 51.02539062 C15.66503906 52.15009766 15.31054688 53.27480469 14.9453125 54.43359375 C14.45828857 55.99678345 14.45828857 55.99678345 13.96142578 57.59155273 C13 60 13 60 11 61 C8.72265625 61.2734375 8.72265625 61.2734375 6.0625 61.375 C5.18722656 61.42398438 4.31195313 61.47296875 3.41015625 61.5234375 C1 61 1 61 -0.44750977 59.06811523 C-2.52128258 54.96981315 -3.86732259 50.75913414 -5.25 46.38671875 C-5.54938477 45.45833694 -5.84876953 44.52995514 -6.15722656 43.57344055 C-7.11072412 40.61331969 -8.05574532 37.65058082 -9 34.6875 C-9.94575427 31.73563688 -10.89330645 28.78436546 -11.84277344 25.83369446 C-12.43185853 24.00131444 -13.01858526 22.16817395 -13.60253906 20.33415222 C-14.86838623 16.382081 -16.18115315 12.48561397 -17.703125 8.62426758 C-19 5 -19 5 -19 1 C-12.65333314 0.41639845 -6.37625222 -0.14491482 0 0 Z " fill="#008BBC" transform="translate(340,347)"/>
<path d="M0 0 C13.9287351 -1.52134243 13.9287351 -1.52134243 18.45703125 1.8046875 C20.3125 4.25 20.3125 4.25 22.0625 6.98828125 C24.3267542 10.50791833 26.95119171 13.40123808 29.8125 16.4375 C30.28147705 16.94506836 30.7504541 17.45263672 31.23364258 17.97558594 C33.4431231 20.36468927 35.67577697 22.72210699 38 25 C38.96088383 22.11734851 39.11670941 20.32337729 39.09765625 17.33203125 C39.09443359 16.43935547 39.09121094 15.54667969 39.08789062 14.62695312 C39.07951172 13.69818359 39.07113281 12.76941406 39.0625 11.8125 C39.05798828 10.87212891 39.05347656 9.93175781 39.04882812 8.96289062 C39.03704626 6.64186288 39.02059558 4.32096356 39 2 C40.47916667 1.66666667 41.95833333 1.33333333 43.4375 1 C44.26121094 0.814375 45.08492187 0.62875 45.93359375 0.4375 C48.60018921 0.05704307 51.0083822 -0.04437362 53.69165039 -0.02734375 C54.49929337 -0.023396 55.30693634 -0.01944824 56.13905334 -0.01538086 C57.06022194 -0.00776733 57.06022194 -0.00776733 58 0 C58.07445542 13.38336112 57.84482042 26.74643067 57.5 40.125 C57.4516192 42.06640118 57.40344109 44.00780743 57.35546875 45.94921875 C57.239305 50.63287388 57.1204359 55.31645286 57 60 C41.99867836 61.13471266 41.99867836 61.13471266 37.58496094 58.62890625 C35.87081443 56.67871672 34.62557505 54.77384116 33.375 52.5 C32.42909794 51.02865081 31.48119784 49.55858411 30.53125 48.08984375 C30.10070312 47.3819873 29.67015625 46.67413086 29.2265625 45.94482422 C27.65273111 43.44937421 25.84099414 41.2581287 23.875 39.0625 C23.35679687 38.47597656 22.83859375 37.88945312 22.3046875 37.28515625 C21.00749832 35.87497228 21.00749832 35.87497228 19 35 C19 43.25 19 51.5 19 60 C13.06 60 7.12 60 1 60 C0.32905829 39.99155983 -0.17201631 20.02269812 0 0 Z " fill="#008BBC" transform="translate(613,348)"/>
<path d="M0 0 C4.32085852 0.19719354 8.61021226 0.67413788 12.91015625 1.1328125 C13.01504085 21.16899901 12.99933064 41.11923301 11.91015625 61.1328125 C5.31015625 61.1328125 -1.28984375 61.1328125 -8.08984375 61.1328125 C-8.08984375 54.14487597 -7.87110282 47.96882937 -7.08984375 41.1328125 C-12.69984375 41.1328125 -18.30984375 41.1328125 -24.08984375 41.1328125 C-24.22261719 42.56496094 -24.35539062 43.99710937 -24.4921875 45.47265625 C-24.67033949 47.33856397 -24.8487376 49.2044482 -25.02734375 51.0703125 C-25.11435547 52.01583984 -25.20136719 52.96136719 -25.29101562 53.93554688 C-25.37802734 54.83466797 -25.46503906 55.73378906 -25.5546875 56.66015625 C-25.67251587 57.90913696 -25.67251587 57.90913696 -25.79272461 59.18334961 C-26.08984375 61.1328125 -26.08984375 61.1328125 -27.08984375 62.1328125 C-28.85571289 62.15454102 -28.85571289 62.15454102 -31.125 62.01171875 C-31.93388672 61.96337891 -32.74277344 61.91503906 -33.57617188 61.86523438 C-34.42630859 61.80916016 -35.27644531 61.75308594 -36.15234375 61.6953125 C-37.00634766 61.64310547 -37.86035156 61.59089844 -38.74023438 61.53710938 C-40.8570637 61.40702489 -42.97349619 61.27051279 -45.08984375 61.1328125 C-45.12742798 59.57892822 -45.12742798 59.57892822 -45.16577148 57.99365234 C-45.62797273 39.02929452 -46.12876277 20.0798376 -47.08984375 1.1328125 C-40.15984375 1.1328125 -33.22984375 1.1328125 -26.08984375 1.1328125 C-25.21484375 10.5703125 -25.21484375 10.5703125 -24.95361328 13.54858398 C-24.87739746 14.31759033 -24.80118164 15.08659668 -24.72265625 15.87890625 C-24.64934082 16.66966553 -24.57602539 17.4604248 -24.50048828 18.27514648 C-24.29721924 19.19469116 -24.29721924 19.19469116 -24.08984375 20.1328125 C-21.04771108 21.65387884 -17.80936803 21.50710588 -14.46484375 21.6953125 C-13.7584375 21.73849609 -13.05203125 21.78167969 -12.32421875 21.82617188 C-10.57965838 21.93226001 -8.83477678 22.03304139 -7.08984375 22.1328125 C-7.09508057 21.50189697 -7.10031738 20.87098145 -7.10571289 20.22094727 C-7.12642201 17.37907903 -7.13948441 14.53722662 -7.15234375 11.6953125 C-7.16072266 10.70208984 -7.16910156 9.70886719 -7.17773438 8.68554688 C-7.18095703 7.74130859 -7.18417969 6.79707031 -7.1875 5.82421875 C-7.19273682 4.94967041 -7.19797363 4.07512207 -7.20336914 3.17407227 C-6.95705899 -1.25474319 -3.69538594 0.01341338 0 0 Z " fill="#008BBC" transform="translate(397.08984375,446.8671875)"/>
<path d="M0 0 C7.02660945 6.38452272 11.63171101 13.29152068 12.25 22.875 C12.01991744 33.61808572 10.26455285 42.28435633 2.36328125 49.93359375 C1.58339844 50.61550781 0.80351563 51.29742187 0 52 C-0.58394531 52.56847656 -1.16789063 53.13695312 -1.76953125 53.72265625 C-8.12426499 58.87242919 -17.29247105 57.78024493 -25 57 C-34.64201439 55.39707629 -40.87872697 50.99429357 -46.640625 43.2578125 C-50.04730898 37.59958451 -51.51441643 32.64264026 -51.375 26.0625 C-51.36267334 25.35593262 -51.35034668 24.64936523 -51.33764648 23.92138672 C-51.01746561 13.99004161 -48.0010831 9.47713047 -41.3515625 2.19921875 C-31.89825868 -6.64166174 -10.64407284 -7.50287089 0 0 Z M-31 19 C-32.84069892 22.04115474 -33 23.80546447 -33 27.375 C-31.47909603 32.88827689 -28.42174483 36.50969549 -23.5625 39.5 C-19.94084051 40.20666527 -17.57722711 39.98682127 -14 39 C-10.79197695 36.81676209 -7.75478096 34.50956192 -6 31 C-5.57619276 24.53693958 -6.2009498 21.26555857 -10.5 16.25 C-13.9525772 13.37285234 -18.21478171 13.60867295 -22.48828125 13.65234375 C-26.66852267 14.23094637 -28.2141028 15.86586565 -31 19 Z " fill="#008BBC" transform="translate(596,451)"/>
<path d="M0 0 C7.02660945 6.38452272 11.63171101 13.29152068 12.25 22.875 C12.01991744 33.61808572 10.26455285 42.28435633 2.36328125 49.93359375 C1.58339844 50.61550781 0.80351562 51.29742187 0 52 C-0.58394531 52.56847656 -1.16789062 53.13695312 -1.76953125 53.72265625 C-8.12426499 58.87242919 -17.29247105 57.78024493 -25 57 C-34.64201439 55.39707629 -40.87872697 50.99429357 -46.640625 43.2578125 C-50.04730898 37.59958451 -51.51441643 32.64264026 -51.375 26.0625 C-51.36267334 25.35593262 -51.35034668 24.64936523 -51.33764648 23.92138672 C-51.01746561 13.99004161 -48.0010831 9.47713047 -41.3515625 2.19921875 C-31.89825868 -6.64166174 -10.64407284 -7.50287089 0 0 Z M-31 19 C-32.84069892 22.04115474 -33 23.80546447 -33 27.375 C-31.47909603 32.88827689 -28.42174483 36.50969549 -23.5625 39.5 C-19.94084051 40.20666527 -17.57722711 39.98682127 -14 39 C-10.79197695 36.81676209 -7.75478096 34.50956192 -6 31 C-5.57619276 24.53693958 -6.2009498 21.26555857 -10.5 16.25 C-13.9525772 13.37285234 -18.21478171 13.60867295 -22.48828125 13.65234375 C-26.66852267 14.23094637 -28.2141028 15.86586565 -31 19 Z " fill="#008BBC" transform="translate(455,351)"/>
<path d="M0 0 C1.04418594 0.00212242 1.04418594 0.00212242 2.10946655 0.00428772 C4.28917109 0.00979551 6.46876508 0.02232895 8.6484375 0.03515625 C10.14452975 0.04018322 11.64062363 0.044744 13.13671875 0.04882812 C16.76565969 0.0597344 20.39453777 0.07693243 24.0234375 0.09765625 C24.5341274 1.94890714 25.03145816 3.8038453 25.5234375 5.66015625 C25.801875 6.69269531 26.0803125 7.72523438 26.3671875 8.7890625 C27.0234375 12.09765625 27.0234375 12.09765625 27.0234375 19.09765625 C14.1534375 18.60265625 14.1534375 18.60265625 1.0234375 18.09765625 C0.6934375 19.74765625 0.3634375 21.39765625 0.0234375 23.09765625 C6.9534375 23.09765625 13.8834375 23.09765625 21.0234375 23.09765625 C24.0234375 32.09765625 24.0234375 32.09765625 24.0234375 39.09765625 C16.1034375 39.09765625 8.1834375 39.09765625 0.0234375 39.09765625 C0.0234375 41.40765625 0.0234375 43.71765625 0.0234375 46.09765625 C8.9334375 46.09765625 17.8434375 46.09765625 27.0234375 46.09765625 C26.0234375 55.09765625 26.0234375 55.09765625 24.0234375 61.09765625 C10.1634375 61.09765625 -3.6965625 61.09765625 -17.9765625 61.09765625 C-17.9765625 41.29765625 -17.9765625 21.49765625 -17.9765625 1.09765625 C-11.77258147 0.47725815 -6.14846353 -0.02499375 0 0 Z " fill="#008BBC" transform="translate(579.9765625,346.90234375)"/>
<path d="M0 0 C28.64717349 -0.61754386 28.64717349 -0.61754386 36 6 C40.71768741 10.93711473 44.06582796 16.03690788 44.375 23 C44.0905617 28.89356151 42.06994625 33.30320157 37.75 37.3125 C31.74120664 42.03639415 26.63943783 42 19 42 C19 48.27 19 54.54 19 61 C15.885625 61.020625 12.77125 61.04125 9.5625 61.0625 C8.57967041 61.071604 7.59684082 61.08070801 6.58422852 61.09008789 C5.81522217 61.09258545 5.04621582 61.09508301 4.25390625 61.09765625 C3.46314697 61.10289307 2.6723877 61.10812988 1.85766602 61.11352539 C0 61 0 61 -1 60 C-1.09804765 58.63149184 -1.12798194 57.25800161 -1.12939453 55.88598633 C-1.13254669 55.01029495 -1.13569885 54.13460358 -1.13894653 53.2323761 C-1.1369223 52.2752623 -1.13489807 51.3181485 -1.1328125 50.33203125 C-1.13376923 49.34563156 -1.13472595 48.35923187 -1.13571167 47.34294128 C-1.13639444 45.24205461 -1.13453348 43.14116586 -1.13037109 41.0402832 C-1.12509769 37.87120602 -1.13027402 34.70227542 -1.13671875 31.53320312 C-1.13984632 20.97608491 -1.01305769 10.51710803 0 0 Z M18 16 C17.15901344 20.01804691 16.94595055 23.01803543 18 27 C22.83063807 26.83313354 22.83063807 26.83313354 26.625 24.25 C27.21114852 21.88488916 27.21114852 21.88488916 26 19.3125 C24.13514594 16.71119802 24.13514594 16.71119802 20.8125 16.1875 C19.4203125 16.0946875 19.4203125 16.0946875 18 16 Z " fill="#008BBC" transform="translate(496,447)"/>
<path d="M0 0 C28.64717349 -0.61754386 28.64717349 -0.61754386 36 6 C40.71768741 10.93711473 44.06582796 16.03690788 44.375 23 C44.0905617 28.89356151 42.06994625 33.30320157 37.75 37.3125 C31.74120664 42.03639415 26.63943783 42 19 42 C19 48.27 19 54.54 19 61 C15.885625 61.020625 12.77125 61.04125 9.5625 61.0625 C8.57967041 61.071604 7.59684082 61.08070801 6.58422852 61.09008789 C5.81522217 61.09258545 5.04621582 61.09508301 4.25390625 61.09765625 C3.46314697 61.10289307 2.6723877 61.10812988 1.85766602 61.11352539 C0 61 0 61 -1 60 C-1.09804765 58.63149184 -1.12798194 57.25800161 -1.12939453 55.88598633 C-1.13254669 55.01029495 -1.13569885 54.13460358 -1.13894653 53.2323761 C-1.1369223 52.2752623 -1.13489807 51.3181485 -1.1328125 50.33203125 C-1.13376923 49.34563156 -1.13472595 48.35923187 -1.13571167 47.34294128 C-1.13639444 45.24205461 -1.13453348 43.14116586 -1.13037109 41.0402832 C-1.12509769 37.87120602 -1.13027402 34.70227542 -1.13671875 31.53320312 C-1.13984632 20.97608491 -1.01305769 10.51710803 0 0 Z M18 16 C17.15901344 20.01804691 16.94595055 23.01803543 18 27 C22.83063807 26.83313354 22.83063807 26.83313354 26.625 24.25 C27.21114852 21.88488916 27.21114852 21.88488916 26 19.3125 C24.13514594 16.71119802 24.13514594 16.71119802 20.8125 16.1875 C19.4203125 16.0946875 19.4203125 16.0946875 18 16 Z " fill="#008BBC" transform="translate(447,447)"/>
<path d="M0 0 C6.93 0 13.86 0 21 0 C21 14.52 21 29.04 21 44 C30.9 43.505 30.9 43.505 41 43 C40 50 40 50 35 61 C23.45 61 11.9 61 0 61 C0 40.87 0 20.74 0 0 Z " fill="#008BBC" transform="translate(517,347)"/>
<path d="M0 0 C6.93 0 13.86 0 21 0 C21 14.52 21 29.04 21 44 C30.9 43.505 30.9 43.505 41 43 C40 50 40 50 35 61 C23.45 61 11.9 61 0 61 C0 40.87 0 20.74 0 0 Z " fill="#008BBC" transform="translate(472,347)"/>
<path d="M0 0 C1.71787783 0.3521116 3.42679826 0.75023847 5.125 1.1875 C6.9991857 1.54595082 8.87416767 1.90026855 10.75 2.25 C12.20937649 2.55759166 13.66813397 2.86822936 15.125 3.1875 C15.125 7.5192062 15.00964412 7.78261145 12.25 10.6875 C8.6556695 14.5075614 7.125 16.8128395 7.125 22.1875 C7.67494532 26.36021015 9.17293753 29.53826584 11.125 33.25 C13.72730009 38.23406626 15.39873973 41.53021232 15.125 47.1875 C12.93832435 53.72680018 9.11812798 60.48402217 3.125 64.1875 C-3.5818432 64.52284216 -9.69982318 61.62805701 -15.875 59.1875 C-15.875 55.57057469 -15.21320072 55.2175883 -12.875 52.625 C-9.88587276 48.70132463 -8.93367416 45.8887991 -9.19921875 40.96484375 C-10.34008067 36.27609908 -12.9024313 32.3801493 -15.30078125 28.23046875 C-17.51407561 23.95216526 -17.75558614 21.91064387 -16.875 17.1875 C-14.4716254 9.84467452 -8.67462625 -0.79108227 0 0 Z " fill="#008BBC" transform="translate(301.875,345.8125)"/>
<path d="M0 0 C7.26 0 14.52 0 22 0 C22 19.8 22 39.6 22 60 C14.74 60 7.48 60 0 60 C0 40.2 0 20.4 0 0 Z " fill="#008BBC" transform="translate(417,448)"/>
</svg>
